<?xml version="1.0" encoding="UTF-8" standalone="no"?>
<!-- Created with Inkscape (http://www.inkscape.org/) -->

<svg
   width="1920"
   height="3840"
   viewBox="0 0 507.99999 1016"
   version="1.1"
   id="svg1"
   xml:space="preserve"
   xmlns:inkscape="http://www.inkscape.org/namespaces/inkscape"
   xmlns:sodipodi="http://sodipodi.sourceforge.net/DTD/sodipodi-0.dtd"
   xmlns="http://www.w3.org/2000/svg"
   xmlns:svg="http://www.w3.org/2000/svg"><sodipodi:namedview
     id="namedview1"
     pagecolor="#ffffff"
     bordercolor="#000000"
     borderopacity="0.25"
     inkscape:showpageshadow="2"
     inkscape:pageopacity="0.0"
     inkscape:pagecheckerboard="0"
     inkscape:deskcolor="#d1d1d1"
     inkscape:document-units="mm"><inkscape:page
       x="0"
       y="0"
       width="508"
       height="1016"
       id="page2"
       margin="0"
       bleed="0" /></sodipodi:namedview><defs
     id="defs1" /><g
     inkscape:label="Camada 1"
     inkscape:groupmode="layer"
     id="layer1"><rect
       style="fill:#d2dcde;fill-opacity:1;stroke-width:3;stroke-linecap:round;stroke-linejoin:round"
       id="rect1"
       width="508"
       height="1016"
       x="0"
       y="0" /><path
       sodipodi:type="star"
       style="opacity:0.597403;fill:#216470;fill-opacity:1;stroke-width:3;stroke-linecap:round;stroke-linejoin:round"
       id="path1"
       inkscape:flatsided="false"
       sodipodi:sides="5"
       sodipodi:cx="93.749031"
       sodipodi:cy="239.75162"
       sodipodi:r1="137.08324"
       sodipodi:r2="75.977097"
       sodipodi:arg1="0.83298127"
       sodipodi:arg2="1.4612998"
       inkscape:rounded="0"
       inkscape:randomized="0"
       d="m 185.96119,341.185 -83.90954,-25.91129 -76.276371,43.52152 -1.286373,-87.80975 -64.962127,-59.09424 83.114526,-28.35812 36.127564,-80.04378 52.653971,70.28347 87.29019,9.62447 -50.57258,71.79569 z"
       inkscape:transform-center-x="-0.10194401"
       inkscape:transform-center-y="10.156694"
       transform="matrix(0.67902951,-0.39049628,0.39049628,0.67902951,-131.71294,17.243519)" /><path
       sodipodi:type="star"
       style="opacity:0.597403;fill:#216470;fill-opacity:1;stroke-width:3;stroke-linecap:round;stroke-linejoin:round"
       id="path1-5"
       inkscape:flatsided="false"
       sodipodi:sides="5"
       sodipodi:cx="93.749031"
       sodipodi:cy="239.75162"
       sodipodi:r1="137.08324"
       sodipodi:r2="75.977097"
       sodipodi:arg1="0.83298127"
       sodipodi:arg2="1.4612998"
       inkscape:rounded="0"
       inkscape:randomized="0"
       d="m 185.96119,341.185 -83.90954,-25.91129 -76.276371,43.52152 -1.286373,-87.80975 -64.962127,-59.09424 83.114526,-28.35812 36.127564,-80.04378 52.653971,70.28347 87.29019,9.62447 -50.57258,71.79569 z"
       inkscape:transform-center-x="-0.10194401"
       inkscape:transform-center-y="10.156694"
       transform="matrix(0.67902951,-0.39049628,0.39049628,0.67902951,317.58341,324.62592)" /><path
       sodipodi:type="star"
       style="opacity:0.597403;fill:#216470;fill-opacity:1;stroke-width:3;stroke-linecap:round;stroke-linejoin:round"
       id="path1-1"
       inkscape:flatsided="false"
       sodipodi:sides="5"
       sodipodi:cx="93.749031"
       sodipodi:cy="239.75162"
       sodipodi:r1="137.08324"
       sodipodi:r2="75.977097"
       sodipodi:arg1="0.83298127"
       sodipodi:arg2="1.4612998"
       inkscape:rounded="0"
       inkscape:randomized="0"
       d="m 185.96119,341.185 -83.90954,-25.91129 -76.276371,43.52152 -1.286373,-87.80975 -64.962127,-59.09424 83.114526,-28.35812 36.127564,-80.04378 52.653971,70.28347 87.29019,9.62447 -50.57258,71.79569 z"
       inkscape:transform-center-x="-0.10194401"
       inkscape:transform-center-y="10.156694"
       transform="matrix(0.67902951,-0.39049628,0.39049628,0.67902951,-129.60815,661.22655)" /><path
       sodipodi:type="star"
       style="opacity:0.597403;fill:#216470;fill-opacity:1;stroke-width:3;stroke-linecap:round;stroke-linejoin:round"
       id="path1-14"
       inkscape:flatsided="false"
       sodipodi:sides="5"
       sodipodi:cx="93.749031"
       sodipodi:cy="239.75162"
       sodipodi:r1="137.08324"
       sodipodi:r2="75.977097"
       sodipodi:arg1="0.83298127"
       sodipodi:arg2="1.4612998"
       inkscape:rounded="0"
       inkscape:randomized="0"
       d="m 185.96119,341.185 -83.90954,-25.91129 -76.276371,43.52152 -1.286373,-87.80975 -64.962127,-59.09424 83.114526,-28.35812 36.127564,-80.04378 52.653971,70.28347 87.29019,9.62447 -50.57258,71.79569 z"
       inkscape:transform-center-x="-0.10194401"
       inkscape:transform-center-y="10.156694"
       transform="matrix(0.67902951,-0.39049628,0.39049628,0.67902951,305.10227,802.77863)" /><path
       sodipodi:type="star"
       style="opacity:0.597403;fill:#216470;fill-opacity:1;stroke-width:3;stroke-linecap:round;stroke-linejoin:round"
       id="path1-16"
       inkscape:flatsided="false"
       sodipodi:sides="5"
       sodipodi:cx="93.749031"
       sodipodi:cy="239.75162"
       sodipodi:r1="137.08324"
       sodipodi:r2="75.977097"
       sodipodi:arg1="0.83298127"
       sodipodi:arg2="1.4612998"
       inkscape:rounded="0"
       inkscape:randomized="0"
       d="m 185.96119,341.185 -83.90954,-25.91129 -76.276371,43.52152 -1.286373,-87.80975 -64.962127,-59.09424 83.114526,-28.35812 36.127564,-80.04378 52.653971,70.28347 87.29019,9.62447 -50.57258,71.79569 z"
       inkscape:transform-center-x="-3.9146284"
       inkscape:transform-center-y="1.6115789"
       transform="matrix(0.36370643,0.2057522,-0.2057522,0.36370643,164.37798,331.54132)" /><path
       sodipodi:type="star"
       style="opacity:0.597403;fill:#216470;fill-opacity:1;stroke-width:3;stroke-linecap:round;stroke-linejoin:round"
       id="path1-16-5"
       inkscape:flatsided="false"
       sodipodi:sides="5"
       sodipodi:cx="93.749031"
       sodipodi:cy="239.75162"
       sodipodi:r1="137.08324"
       sodipodi:r2="75.977097"
       sodipodi:arg1="0.83298127"
       sodipodi:arg2="1.4612998"
       inkscape:rounded="0"
       inkscape:randomized="0"
       d="m 185.96119,341.185 -83.90954,-25.91129 -76.276371,43.52152 -1.286373,-87.80975 -64.962127,-59.09424 83.114526,-28.35812 36.127564,-80.04378 52.653971,70.28347 87.29019,9.62447 -50.57258,71.79569 z"
       inkscape:transform-center-x="-3.9146284"
       inkscape:transform-center-y="1.6115789"
       transform="matrix(0.36370643,0.2057522,-0.2057522,0.36370643,381.68369,56.22006)" /><path
       sodipodi:type="star"
       style="opacity:0.597403;fill:#216470;fill-opacity:1;stroke-width:3;stroke-linecap:round;stroke-linejoin:round"
       id="path1-16-3"
       inkscape:flatsided="false"
       sodipodi:sides="5"
       sodipodi:cx="93.749031"
       sodipodi:cy="239.75162"
       sodipodi:r1="137.08324"
       sodipodi:r2="75.977097"
       sodipodi:arg1="0.83298127"
       sodipodi:arg2="1.4612998"
       inkscape:rounded="0"
       inkscape:randomized="0"
       d="m 185.96119,341.185 -83.90954,-25.91129 -76.276371,43.52152 -1.286373,-87.80975 -64.962127,-59.09424 83.114526,-28.35812 36.127564,-80.04378 52.653971,70.28347 87.29019,9.62447 -50.57258,71.79569 z"
       inkscape:transform-center-x="-3.9146284"
       inkscape:transform-center-y="1.6115789"
       transform="matrix(0.36370643,0.2057522,-0.2057522,0.36370643,330.88369,635.65756)" /><path
       sodipodi:type="star"
       style="opacity:0.597403;fill:#216470;fill-opacity:1;stroke-width:3;stroke-linecap:round;stroke-linejoin:round"
       id="path1-16-38"
       inkscape:flatsided="false"
       sodipodi:sides="5"
       sodipodi:cx="93.749031"
       sodipodi:cy="239.75162"
       sodipodi:r1="137.08324"
       sodipodi:r2="75.977097"
       sodipodi:arg1="0.83298127"
       sodipodi:arg2="1.4612998"
       inkscape:rounded="0"
       inkscape:randomized="0"
       d="m 185.96119,341.185 -83.90954,-25.91129 -76.276371,43.52152 -1.286373,-87.80975 -64.962127,-59.09424 83.114526,-28.35812 36.127564,-80.04378 52.653971,70.28347 87.29019,9.62447 -50.57258,71.79569 z"
       inkscape:transform-center-x="-3.9146284"
       inkscape:transform-center-y="1.6115789"
       transform="matrix(0.36370643,0.2057522,-0.2057522,0.36370643,105.19411,907.64922)" /><path
       sodipodi:type="star"
       style="opacity:0.597403;fill:#216470;fill-opacity:1;stroke-width:3;stroke-linecap:round;stroke-linejoin:round"
       id="path1-16-7"
       inkscape:flatsided="false"
       sodipodi:sides="5"
       sodipodi:cx="93.749031"
       sodipodi:cy="239.75162"
       sodipodi:r1="137.08324"
       sodipodi:r2="75.977097"
       sodipodi:arg1="0.83298127"
       sodipodi:arg2="1.4612998"
       inkscape:rounded="0"
       inkscape:randomized="0"
       d="m 185.96119,341.185 -83.90954,-25.91129 -76.276371,43.52152 -1.286373,-87.80975 -64.962127,-59.09424 83.114526,-28.35812 36.127564,-80.04378 52.653971,70.28347 87.29019,9.62447 -50.57258,71.79569 z"
       inkscape:transform-center-x="-3.9146284"
       inkscape:transform-center-y="1.6115789"
       transform="matrix(0.36370643,0.2057522,-0.2057522,0.36370643,249.65661,-103.58828)" /><path
       sodipodi:type="star"
       style="opacity:0.597403;fill:#962d2d;fill-opacity:1;stroke-width:3;stroke-linecap:round;stroke-linejoin:round"
       id="path1-16-8"
       inkscape:flatsided="false"
       sodipodi:sides="5"
       sodipodi:cx="93.749031"
       sodipodi:cy="239.75162"
       sodipodi:r1="137.08324"
       sodipodi:r2="75.977097"
       sodipodi:arg1="0.83298127"
       sodipodi:arg2="1.4612998"
       inkscape:rounded="0"
       inkscape:randomized="0"
       d="m 185.96119,341.185 -83.90954,-25.91129 -76.276371,43.52152 -1.286373,-87.80975 -64.962127,-59.09424 83.114526,-28.35812 36.127564,-80.04378 52.653971,70.28347 87.29019,9.62447 -50.57258,71.79569 z"
       inkscape:transform-center-x="0.16704699"
       inkscape:transform-center-y="1.4506103"
       transform="matrix(0.10872763,-0.05754228,0.05754228,0.10872763,182.29781,380.78352)" /><path
       sodipodi:type="star"
       style="opacity:0.597403;fill:#962d2d;fill-opacity:1;stroke-width:3;stroke-linecap:round;stroke-linejoin:round"
       id="path1-16-8-8"
       inkscape:flatsided="false"
       sodipodi:sides="5"
       sodipodi:cx="93.749031"
       sodipodi:cy="239.75162"
       sodipodi:r1="137.08324"
       sodipodi:r2="75.977097"
       sodipodi:arg1="0.83298127"
       sodipodi:arg2="1.4612998"
       inkscape:rounded="0"
       inkscape:randomized="0"
       d="m 185.96119,341.185 -83.90954,-25.91129 -76.276371,43.52152 -1.286373,-87.80975 -64.962127,-59.09424 83.114526,-28.35812 36.127564,-80.04378 52.653971,70.28347 87.29019,9.62447 -50.57258,71.79569 z"
       inkscape:transform-center-x="0.16704699"
       inkscape:transform-center-y="1.4506103"
       transform="matrix(0.10872763,-0.05754228,0.05754228,0.10872763,128.20368,114.72413)" /><path
       sodipodi:type="star"
       style="opacity:0.597403;fill:#962d2d;fill-opacity:1;stroke-width:3;stroke-linecap:round;stroke-linejoin:round"
       id="path1-16-8-86"
       inkscape:flatsided="false"
       sodipodi:sides="5"
       sodipodi:cx="93.749031"
       sodipodi:cy="239.75162"
       sodipodi:r1="137.08324"
       sodipodi:r2="75.977097"
       sodipodi:arg1="0.83298127"
       sodipodi:arg2="1.4612998"
       inkscape:rounded="0"
       inkscape:randomized="0"
       d="m 185.96119,341.185 -83.90954,-25.91129 -76.276371,43.52152 -1.286373,-87.80975 -64.962127,-59.09424 83.114526,-28.35812 36.127564,-80.04378 52.653971,70.28347 87.29019,9.62447 -50.57258,71.79569 z"
       inkscape:transform-center-x="0.16704699"
       inkscape:transform-center-y="1.4506103"
       transform="matrix(0.10872763,-0.05754228,0.05754228,0.10872763,375.85368,514.24496)" /><path
       sodipodi:type="star"
       style="opacity:0.597403;fill:#962d2d;fill-opacity:1;stroke-width:3;stroke-linecap:round;stroke-linejoin:round"
       id="path1-16-8-0"
       inkscape:flatsided="false"
       sodipodi:sides="5"
       sodipodi:cx="93.749031"
       sodipodi:cy="239.75162"
       sodipodi:r1="137.08324"
       sodipodi:r2="75.977097"
       sodipodi:arg1="0.83298127"
       sodipodi:arg2="1.4612998"
       inkscape:rounded="0"
       inkscape:randomized="0"
       d="m 185.96119,341.185 -83.90954,-25.91129 -76.276371,43.52152 -1.286373,-87.80975 -64.962127,-59.09424 83.114526,-28.35812 36.127564,-80.04378 52.653971,70.28347 87.29019,9.62447 -50.57258,71.79569 z"
       inkscape:transform-center-x="0.16704699"
       inkscape:transform-center-y="1.4506103"
       transform="matrix(0.10872763,-0.05754228,0.05754228,0.10872763,386.43702,174.51996)" /><path
       sodipodi:type="star"
       style="opacity:0.597403;fill:#962d2d;fill-opacity:1;stroke-width:3;stroke-linecap:round;stroke-linejoin:round"
       id="path1-16-8-9"
       inkscape:flatsided="false"
       sodipodi:sides="5"
       sodipodi:cx="93.749031"
       sodipodi:cy="239.75162"
       sodipodi:r1="137.08324"
       sodipodi:r2="75.977097"
       sodipodi:arg1="0.83298127"
       sodipodi:arg2="1.4612998"
       inkscape:rounded="0"
       inkscape:randomized="0"
       d="m 185.96119,341.185 -83.90954,-25.91129 -76.276371,43.52152 -1.286373,-87.80975 -64.962127,-59.09424 83.114526,-28.35812 36.127564,-80.04378 52.653971,70.28347 87.29019,9.62447 -50.57258,71.79569 z"
       inkscape:transform-center-x="0.16704699"
       inkscape:transform-center-y="1.4506103"
       transform="matrix(0.10872763,-0.05754228,0.05754228,0.10872763,291.18702,2.5408)" /><path
       sodipodi:type="star"
       style="opacity:0.597403;fill:#962d2d;fill-opacity:1;stroke-width:3;stroke-linecap:round;stroke-linejoin:round"
       id="path1-16-8-06"
       inkscape:flatsided="false"
       sodipodi:sides="5"
       sodipodi:cx="93.749031"
       sodipodi:cy="239.75162"
       sodipodi:r1="137.08324"
       sodipodi:r2="75.977097"
       sodipodi:arg1="0.83298127"
       sodipodi:arg2="1.4612998"
       inkscape:rounded="0"
       inkscape:randomized="0"
       d="m 185.96119,341.185 -83.90954,-25.91129 -76.276371,43.52152 -1.286373,-87.80975 -64.962127,-59.09424 83.114526,-28.35812 36.127564,-80.04378 52.653971,70.28347 87.29019,9.62447 -50.57258,71.79569 z"
       inkscape:transform-center-x="0.16704699"
       inkscape:transform-center-y="1.4506103"
       transform="matrix(0.10872763,-0.05754228,0.05754228,0.10872763,109.94743,749.45955)" /><path
       sodipodi:type="star"
       style="opacity:0.597403;fill:#962d2d;fill-opacity:1;stroke-width:3;stroke-linecap:round;stroke-linejoin:round"
       id="path1-16-8-96"
       inkscape:flatsided="false"
       sodipodi:sides="5"
       sodipodi:cx="93.749031"
       sodipodi:cy="239.75162"
       sodipodi:r1="137.08324"
       sodipodi:r2="75.977097"
       sodipodi:arg1="0.83298127"
       sodipodi:arg2="1.4612998"
       inkscape:rounded="0"
       inkscape:randomized="0"
       d="m 185.96119,341.185 -83.90954,-25.91129 -76.276371,43.52152 -1.286373,-87.80975 -64.962127,-59.09424 83.114526,-28.35812 36.127564,-80.04378 52.653971,70.28347 87.29019,9.62447 -50.57258,71.79569 z"
       inkscape:transform-center-x="0.16704699"
       inkscape:transform-center-y="1.4506103"
       transform="matrix(0.10872763,-0.05754228,0.05754228,0.10872763,377.1766,763.21788)" /><path
       sodipodi:type="star"
       style="opacity:0.597403;fill:#962d2d;fill-opacity:1;stroke-width:3;stroke-linecap:round;stroke-linejoin:round"
       id="path1-16-8-2"
       inkscape:flatsided="false"
       sodipodi:sides="5"
       sodipodi:cx="93.749031"
       sodipodi:cy="239.75162"
       sodipodi:r1="137.08324"
       sodipodi:r2="75.977097"
       sodipodi:arg1="0.83298127"
       sodipodi:arg2="1.4612998"
       inkscape:rounded="0"
       inkscape:randomized="0"
       d="m 185.96119,341.185 -83.90954,-25.91129 -76.276371,43.52152 -1.286373,-87.80975 -64.962127,-59.09424 83.114526,-28.35812 36.127564,-80.04378 52.653971,70.28347 87.29019,9.62447 -50.57258,71.79569 z"
       inkscape:transform-center-x="0.16704699"
       inkscape:transform-center-y="1.4506103"
       transform="matrix(0.10872763,-0.05754228,0.05754228,0.10872763,120.53077,960.06788)" /><path
       sodipodi:type="star"
       style="opacity:0.597403;fill:#962d2d;fill-opacity:1;stroke-width:3;stroke-linecap:round;stroke-linejoin:round"
       id="path1-16-8-98"
       inkscape:flatsided="false"
       sodipodi:sides="5"
       sodipodi:cx="93.749031"
       sodipodi:cy="239.75162"
       sodipodi:r1="137.08324"
       sodipodi:r2="75.977097"
       sodipodi:arg1="0.83298127"
       sodipodi:arg2="1.4612998"
       inkscape:rounded="0"
       inkscape:randomized="0"
       d="m 185.96119,341.185 -83.90954,-25.91129 -76.276371,43.52152 -1.286373,-87.80975 -64.962127,-59.09424 83.114526,-28.35812 36.127564,-80.04378 52.653971,70.28347 87.29019,9.62447 -50.57258,71.79569 z"
       inkscape:transform-center-x="0.16704699"
       inkscape:transform-center-y="1.4506103"
       transform="matrix(0.10872763,-0.05754228,0.05754228,0.10872763,31.63077,572.71788)" /><path
       sodipodi:type="star"
       style="opacity:0.597403;fill:#962d2d;fill-opacity:1;stroke-width:3;stroke-linecap:round;stroke-linejoin:round"
       id="path1-16-8-3"
       inkscape:flatsided="false"
       sodipodi:sides="5"
       sodipodi:cx="93.749031"
       sodipodi:cy="239.75162"
       sodipodi:r1="137.08324"
       sodipodi:r2="75.977097"
       sodipodi:arg1="0.83298127"
       sodipodi:arg2="1.4612998"
       inkscape:rounded="0"
       inkscape:randomized="0"
       d="m 185.96119,341.185 -83.90954,-25.91129 -76.276371,43.52152 -1.286373,-87.80975 -64.962127,-59.09424 83.114526,-28.35812 36.127564,-80.04378 52.653971,70.28347 87.29019,9.62447 -50.57258,71.79569 z"
       inkscape:transform-center-x="0.16704699"
       inkscape:transform-center-y="1.4506103"
       transform="matrix(0.10872763,-0.05754228,0.05754228,0.10872763,263.67035,558.69496)" /><path
       sodipodi:type="star"
       style="opacity:0.597403;fill:#962d2d;fill-opacity:1;stroke-width:3;stroke-linecap:round;stroke-linejoin:round"
       id="path1-16-8-20"
       inkscape:flatsided="false"
       sodipodi:sides="5"
       sodipodi:cx="93.749031"
       sodipodi:cy="239.75162"
       sodipodi:r1="137.08324"
       sodipodi:r2="75.977097"
       sodipodi:arg1="0.83298127"
       sodipodi:arg2="1.4612998"
       inkscape:rounded="0"
       inkscape:randomized="0"
       d="m 185.96119,341.185 -83.90954,-25.91129 -76.276371,43.52152 -1.286373,-87.80975 -64.962127,-59.09424 83.114526,-28.35812 36.127564,-80.04378 52.653971,70.28347 87.29019,9.62447 -50.57258,71.79569 z"
       inkscape:transform-center-x="0.16704699"
       inkscape:transform-center-y="1.4506103"
       transform="matrix(0.10872763,-0.05754228,0.05754228,0.10872763,237.4766,249.92621)" /><path
       sodipodi:type="star"
       style="opacity:0.597403;fill:#962d2d;fill-opacity:1;stroke-width:3;stroke-linecap:round;stroke-linejoin:round"
       id="path1-16-8-26"
       inkscape:flatsided="false"
       sodipodi:sides="5"
       sodipodi:cx="93.749031"
       sodipodi:cy="239.75162"
       sodipodi:r1="137.08324"
       sodipodi:r2="75.977097"
       sodipodi:arg1="0.83298127"
       sodipodi:arg2="1.4612998"
       inkscape:rounded="0"
       inkscape:randomized="0"
       d="m 185.96119,341.185 -83.90954,-25.91129 -76.276371,43.52152 -1.286373,-87.80975 -64.962127,-59.09424 83.114526,-28.35812 36.127564,-80.04378 52.653971,70.28347 87.29019,9.62447 -50.57258,71.79569 z"
       inkscape:transform-center-x="0.16704699"
       inkscape:transform-center-y="1.4506103"
       transform="matrix(0.10872763,-0.05754228,0.05754228,0.10872763,-11.49632,312.89705)" /><path
       sodipodi:type="star"
       style="opacity:0.597403;fill:#962d2d;fill-opacity:1;stroke-width:3;stroke-linecap:round;stroke-linejoin:round"
       id="path1-16-8-7"
       inkscape:flatsided="false"
       sodipodi:sides="5"
       sodipodi:cx="93.749031"
       sodipodi:cy="239.75162"
       sodipodi:r1="137.08324"
       sodipodi:r2="75.977097"
       sodipodi:arg1="0.83298127"
       sodipodi:arg2="1.4612998"
       inkscape:rounded="0"
       inkscape:randomized="0"
       d="m 185.96119,341.185 -83.90954,-25.91129 -76.276371,43.52152 -1.286373,-87.80975 -64.962127,-59.09424 83.114526,-28.35812 36.127564,-80.04378 52.653971,70.28347 87.29019,9.62447 -50.57258,71.79569 z"
       inkscape:transform-center-x="0.16704699"
       inkscape:transform-center-y="1.4506103"
       transform="matrix(0.10872763,-0.05754228,0.05754228,0.10872763,478.7766,647.85955)" /><path
       sodipodi:type="star"
       style="opacity:0.597403;fill:#962d2d;fill-opacity:1;stroke-width:3;stroke-linecap:round;stroke-linejoin:round"
       id="path1-16-8-00"
       inkscape:flatsided="false"
       sodipodi:sides="5"
       sodipodi:cx="93.749031"
       sodipodi:cy="239.75162"
       sodipodi:r1="137.08324"
       sodipodi:r2="75.977097"
       sodipodi:arg1="0.83298127"
       sodipodi:arg2="1.4612998"
       inkscape:rounded="0"
       inkscape:randomized="0"
       d="m 185.96119,341.185 -83.90954,-25.91129 -76.276371,43.52152 -1.286373,-87.80975 -64.962127,-59.09424 83.114526,-28.35812 36.127564,-80.04378 52.653971,70.28347 87.29019,9.62447 -50.57258,71.79569 z"
       inkscape:transform-center-x="0.16704699"
       inkscape:transform-center-y="1.4506103"
       transform="matrix(0.10872763,-0.05754228,0.05754228,0.10872763,251.23493,898.41996)" /></g></svg>
