<svg width="227" height="227" viewBox="0 0 227 227" fill="none" xmlns="http://www.w3.org/2000/svg">
<path d="M180.969 82.8383C172.575 51.7452 145.381 45.2158 132.835 46.0429L122.647 75.8465L139.792 116.843C148.456 119.311 147.987 128.89 146.67 133.371C144.908 138.526 141.878 138.617 141.237 137.987C141.299 131.227 136.66 133.032 136.684 133.656C134.827 132.109 131.536 133.646 131.969 135.028C131.242 134.42 130.308 134.25 130.308 134.25C129.157 133.857 126.578 134.825 126.304 137.505C126.089 139.611 128.394 140.788 129.864 141.187L129.901 148.597C132.748 151.543 140.791 150.881 144.456 150.182C146.541 145.964 151.327 146.059 152.595 150.807C153.243 153.233 148.833 157.74 146.323 159.758C143.889 163.118 129.032 159.909 121.908 157.885C106.725 153.434 100.615 161.599 99.4577 166.237C96.4428 175.809 103.563 183.359 107.5 185.938C108.015 174.094 117.78 174.658 119.524 178.953C119.992 180.592 116.308 186.483 114.407 189.223L114.789 189.046C120.41 183.878 124.414 180.624 132.754 183.475C136.877 184.884 145.122 187.703 146.339 182.263C147.313 177.911 149.149 174.042 152.422 173.864C157.398 173.592 156.441 179.963 155.34 183.182C157.249 182.109 165.305 166.247 165.735 156.532C201.491 110.195 172.043 77.938 172.704 76.0063C173.232 74.461 173.086 75.8287 180.969 82.8383Z" fill="#2A0C16"/>
<path d="M132.717 137.54C133.021 136.313 132.564 135.524 131.969 135.028M131.969 135.028C131.242 134.42 130.308 134.25 130.308 134.25C129.157 133.857 126.578 134.825 126.304 137.505C126.089 139.611 128.394 140.788 129.864 141.187L129.901 148.597C132.748 151.543 140.791 150.881 144.456 150.182C146.541 145.964 151.327 146.059 152.595 150.807C153.243 153.233 148.833 157.74 146.323 159.758C143.889 163.118 129.032 159.909 121.908 157.885C106.725 153.434 100.615 161.599 99.4577 166.237C96.4428 175.809 103.563 183.359 107.5 185.938C108.015 174.094 117.78 174.658 119.524 178.953C119.992 180.592 116.308 186.483 114.407 189.223L114.789 189.046C120.41 183.878 124.414 180.624 132.754 183.475C136.877 184.884 145.122 187.703 146.339 182.263C147.313 177.911 149.149 174.042 152.422 173.864C157.398 173.592 156.441 179.963 155.34 183.182C157.249 182.109 165.305 166.247 165.735 156.532C201.491 110.195 172.043 77.938 172.704 76.0063C173.232 74.461 173.086 75.8287 180.969 82.8383C172.575 51.7452 145.381 45.2158 132.835 46.0429L122.647 75.8465L139.792 116.843C148.456 119.311 147.987 128.89 146.67 133.371M137.885 137.457C137.988 135.492 137.462 134.304 136.684 133.656C134.827 132.109 131.536 133.646 131.969 135.028M136.684 133.656C136.66 133.032 141.299 131.227 141.237 137.987C141.878 138.617 144.908 138.526 146.67 133.371M146.67 133.371C149.44 125.894 158.878 113.443 174.471 123.458" stroke="#481728" stroke-width="0.5"/>
<path d="M94.6289 42.2286C80.9357 44.6982 68.0514 67.3543 63.3209 78.3737C81.697 97.6 119.549 133.963 123.948 125.604C128.347 117.245 135.96 116.149 139.217 116.646C139.5 112.058 146.009 109.619 149.228 108.973C146.833 104.702 140.944 104.703 138.299 105.237C141.63 97.7459 149.884 99.8483 153.595 101.836C151.117 96.3042 143.922 94.1117 141.209 93.9035C143.88 72.9339 162.161 73.0188 168.691 77.4085C161.526 60.7817 140.158 62.2099 129.575 64.0373C130.868 54.6167 141.806 53.6298 143.981 54.7843C139.957 46.2584 123.445 43.7574 115.691 43.5727C114.915 41.3346 122.678 37.2286 126.273 35.1699C110.765 34.4917 98.3364 43.5988 89.8845 50.4694C89.0322 48.4521 92.6923 44.135 94.6289 42.2286Z" fill="#481728" stroke="#481728" stroke-width="0.5"/>
<path d="M34.1344 117.71L46.5 131.5C47.6634 128.097 48.4843 120.273 45.7195 118.588C42.9547 116.903 36.8441 117.3 34.1344 117.71Z" fill="#2A0C16"/>
<path d="M47.5121 123.381L36.5914 106.983C39.3605 107.537 45.5115 109.09 47.9632 110.87C48.1742 110.085 48.267 107.785 46.9508 104.869C45.6347 101.954 46.7306 92.6711 47.443 88.3942C46.6292 85.1367 45.3243 78.054 46.6145 75.7828C47.2665 78.574 49.2966 83.9116 52.2012 82.932C53.5771 77.341 58.014 66.3034 64.7548 66.8817C62.6067 69.435 59.606 75.724 64.7874 80.454C70.7052 74.8745 85.2098 61.5458 100.731 64.3859C96.1509 67.3406 85.8542 75.6354 90.0121 84.1454C94.8409 80.0429 106.99 72.443 116.956 74.8634C113.171 77.1653 105.477 83.8225 104.982 92.0365C108.858 88.8412 118.913 83.6076 130.803 87.9184C130.803 87.9184 123.148 92.2674 123.125 102.862C127.798 99.5277 136.077 101.433 136.997 101.748C134.067 102.801 128.366 105.948 128.999 110.109C131.479 108.491 136.086 110.991 136.086 110.991C136.086 110.991 117.64 116.089 126.125 128.852C127.22 133.794 123.929 145.613 102.011 153.35C101.1 154.762 99.8092 158.115 99.4793 160.61C98.8395 165.447 90.7909 163.621 92.9091 158.364L93.5266 155.618C91.8338 155.245 88.0544 155.367 85.5953 158.146C82.4547 161.696 77.0903 152.956 82.305 150.857C85.7517 151.111 88.5197 149.591 88.5197 149.591C88.5197 149.591 89.1274 146.874 82.7193 147.766C81.1555 147.642 77.9367 147.379 77.5423 145.996C76.6656 142.922 80.2455 140.907 83.4093 141.989C84.6226 142.198 87.0663 142.191 87.1344 140.488C87.2195 138.36 86.8892 137.067 84.9186 137.573C82.1012 138.297 78.1584 133.857 83.8076 130.487C85.0568 129.964 87.941 129.483 89.4835 131.737C91.4117 134.553 90.5581 136.111 91.8029 136.228C93.0477 136.345 100.597 133.995 99.9089 130.369C99.795 129.769 99.6599 129.134 99.5133 128.492C98.3707 127.383 79.9178 123.024 77.9459 128.355C77.9325 128.394 77.9194 128.432 77.9067 128.469C78.3911 130.991 77.0567 135.1 76.1595 136.266C69.7716 144.568 69.4591 156.017 70.1013 160.703C70.2106 169.694 77.3119 177.645 80.1115 181.989C83.6952 188.516 79.9009 190.066 77.5423 189.505C71.2345 186.023 66.3483 178.397 63.4937 173.318C58.165 163.839 53.7597 145.839 50.953 139.726C48.1463 133.612 46.877 135.534 46.3705 134.33C45.9653 133.367 46.9627 126.629 47.5121 123.381Z" fill="#2A0C16"/>
<path d="M99.5133 128.492C98.3627 127.375 79.6563 122.962 77.9067 128.469C78.3911 130.991 77.0567 135.1 76.1595 136.266C69.7716 144.568 69.4591 156.017 70.1013 160.703C70.2106 169.694 77.3119 177.645 80.1115 181.989C83.6952 188.516 79.9009 190.066 77.5423 189.505C71.2345 186.023 66.3483 178.397 63.4937 173.318C58.165 163.839 53.7597 145.839 50.953 139.726C48.1463 133.612 46.877 135.534 46.3705 134.33C45.9653 133.367 46.9627 126.629 47.5121 123.381L36.5914 106.983C39.3605 107.537 45.5115 109.09 47.9632 110.87C48.1741 110.085 48.267 107.785 46.9508 104.869C45.6347 101.954 46.7306 92.6711 47.443 88.3942C46.6292 85.1367 45.3243 78.054 46.6145 75.7828C47.2665 78.574 49.2966 83.9116 52.2012 82.932C53.5771 77.341 58.014 66.3034 64.7548 66.8817C62.6067 69.435 59.606 75.724 64.7874 80.454C70.7052 74.8745 85.2098 61.5458 100.731 64.3859C96.1509 67.3406 85.8542 75.6354 90.0121 84.1454C94.8409 80.0429 106.99 72.443 116.956 74.8634C113.171 77.1653 105.477 83.8225 104.982 92.0365C108.858 88.8412 118.913 83.6076 130.803 87.9184C130.803 87.9184 123.148 92.2674 123.125 102.862C127.798 99.5277 136.077 101.433 136.997 101.748C134.067 102.801 128.366 105.948 128.999 110.109C131.479 108.491 136.086 110.991 136.086 110.991C136.086 110.991 117.64 116.089 126.125 128.852C127.22 133.794 123.929 145.613 102.011 153.35C101.1 154.762 99.8092 158.115 99.4793 160.61C98.8395 165.447 90.7909 163.621 92.9091 158.364L93.5266 155.618C91.8338 155.245 88.0544 155.367 85.5953 158.146C82.4547 161.696 77.0903 152.956 82.305 150.857C85.7517 151.111 88.5197 149.591 88.5197 149.591C88.5197 149.591 89.1274 146.874 82.7193 147.766C81.1555 147.642 77.9367 147.379 77.5423 145.996C76.6656 142.922 80.2455 140.907 83.4093 141.989C84.6226 142.198 87.0663 142.191 87.1344 140.488C87.2195 138.36 86.8892 137.067 84.9186 137.573C82.1012 138.297 78.1584 133.857 83.8076 130.487C85.0568 129.964 87.941 129.483 89.4835 131.737C91.4117 134.553 90.5581 136.111 91.8029 136.228C93.0477 136.345 100.597 133.995 99.9089 130.369C99.795 129.769 99.6599 129.134 99.5133 128.492C98.9511 126.03 98.2188 123.454 97.8587 122.271C95.9413 121.616 92.348 118.847 93.3143 113.013M77.9067 128.469C79.0612 125.092 82.943 115.258 87.4097 110.07L69.9693 114.587L71.7478 106.565C69.0396 107.283 63.5101 109.05 63.0573 110.375" stroke="#481728" stroke-width="0.5"/>
<path d="M138.851 132.02L139.159 133.753L138.177 133.762L138.279 131.909L138.44 131.188L138.851 132.02Z" fill="#D9D9D9" stroke="#D9D9D9"/>
<path d="M134.588 132.469L135.248 134.121L134.296 134.318L134.013 132.471L134.021 131.735L134.588 132.469Z" fill="#D9D9D9" stroke="#D9D9D9"/>
<path d="M129.043 133.656L129.703 135.308L128.751 135.505L128.468 133.657L128.477 132.922L129.043 133.656Z" fill="#D9D9D9" stroke="#D9D9D9"/>
<path d="M83.3075 132.67C80.8087 130.583 82.9562 126.18 84.2232 124.353C84.1035 125.956 84.4404 129.543 86.745 131.071C87.2688 131.418 85.4136 132.773 83.3075 132.67Z" fill="#D9D9D9" stroke="#D9D9D9"/>
<path d="M78.7546 146.667C76.0897 146.245 75.7664 143.33 75.8104 141.495C76.4542 142.684 78.1178 143.966 80.3955 144.073C80.9131 144.097 80.2506 145.847 78.7546 146.667Z" fill="#D9D9D9" stroke="#D9D9D9"/>
<path d="M83.2781 156.604C81.9718 158.847 79.0528 158.017 77.2988 157.271C78.6623 157.148 80.4597 156.139 81.3318 154.124C81.53 153.666 82.9927 154.938 83.2781 156.604Z" fill="#D9D9D9" stroke="#D9D9D9"/>
<path d="M96.7842 162.267C97.2305 164.845 92.4832 167.08 90.6591 167.544C91.6234 166.622 94.3265 163.599 93.6948 161.466C93.5512 160.981 95.4912 161.111 96.7842 162.267Z" fill="#D9D9D9" stroke="#D9D9D9"/>
<path d="M56 141C55.6 141 52.5 139 53.5 137C54.5 135 55.5 134.5 56 134.5C56.5 134.5 58.5 136 58.5 137C58.5 137.707 58 141 56 141Z" fill="white" stroke="white" stroke-width="0.5"/>
<ellipse cx="55.9479" cy="137.935" rx="3.82898" ry="1.32754" transform="rotate(-18.2053 55.9479 137.935)" fill="#A30606"/>
</svg>
