<?xml version="1.0" encoding="UTF-8"?>
<svg id="b" data-name="Layer 2" xmlns="http://www.w3.org/2000/svg" viewBox="0 0 161.38 271.09">
  <defs>
    <style>
      .d {
        fill-rule: evenodd;
      }
    </style>
  </defs>
  <g id="c" data-name="Layer 1">
    <g>
      <path class="d" d="m37.84,238.43c0,1.1-.4,1.77-1.6,2.06l-2.12.51v3.82h14.71v-3.82l-3.19-.51c-1.19-.19-1.45-.85-1.45-2.06v-5.82h5.6c6.42,0,12.02-3.45,12.02-11.27s-5.55-11.31-12.02-11.31h-15.72v3.82l2.24.48c1.2.26,1.52,1,1.52,2.2v21.9h0Zm17.14-17.13c0,4.28-2.2,6.48-5.77,6.48h-4.98v-12.95h4.98c3.58,0,5.77,2.19,5.77,6.48h0Zm70.85,16.78c-2.66,1.16-5.46,1.86-8.05,1.86-5.52,0-10.02-3.18-10.02-12.48,0-6.78,1.31-12.9,8.07-12.9,1.5,0,3.08.31,4.99,1.01l1.01,5.07h4.69l.77-8.36c-4.05-2.22-7.13-2.75-10.27-2.75-11.59,0-16.1,8.11-16.1,18.26,0,12.83,7.25,17.4,15.03,17.4,3.86,0,7.35-.83,10.8-2.46l-.93-4.66h0Zm-44.73,7.21c7.87,0,12.94-4.2,12.94-11.69v-17.44c0-1.13.6-1.65,1.43-1.82l2.34-.5v-3.82h-13.97v3.82l2.35.5c.82.17,1.42.72,1.42,1.82v16.67c0,5.84-3.24,7.39-6.51,7.39s-6.51-1.55-6.51-7.39v-16.67c0-1.11.6-1.65,1.42-1.82l2.35-.5v-3.82h-13.97v3.82l2.34.5c.83.18,1.43.69,1.43,1.82v17.44c0,7.48,5.07,11.69,12.94,11.69h0Zm13.41,25.79c4.99,0,8.1-3.76,8.1-8.87,0-5.48-2.72-8.96-8.1-8.96-4.99,0-8.1,3.85-8.1,8.96,0,5.48,2.73,8.87,8.1,8.87h0Zm0-2.52c-3.15,0-4.56-2.51-4.56-6.35s1.5-6.44,4.56-6.44,4.56,2.6,4.56,6.44-1.41,6.35-4.56,6.35h0Zm-17.64,2.28v-1.9l1.07-.25c.59-.14.8-.47.8-1.02v-10.92c0-.6-.17-.97-.76-1.1l-1.11-.24v-1.9h6.74v1.9l-1.11.24c-.59.13-.76.51-.76,1.1v10.92c0,.54.2.89.8,1.02l1.07.25v1.9h-6.74Zm-12.48-3.11v-3.6s1.09,0,1.09,0c.68,0,1.11.46,1.39.84l3.01,4.08c.91,1.24,2.1,2.02,3.41,2.02.66,0,1.34-.17,2.02-.55v-2.15c-.18.1-.74.19-1.1.19-.6,0-1.15-.44-1.88-1.4l-2.01-2.63c-.49-.64-1.03-.87-1.6-.97,1.28-.22,4.12-1.26,4.12-4.83s-2.45-5.25-6.12-5.25h-7.36v1.9l1.11.24c.6.13.76.51.76,1.1v10.92c0,.54-.21.89-.8,1.02l-1.07.25v1.9h7.35v-1.9l-1.59-.25c-.58-.09-.73-.42-.73-.95h0Zm.01-11.83h2.1c1.66,0,3.04,1.02,3.04,2.84s-1.02,2.98-3.04,2.98h-2.1v-5.81Z"/>
      <path class="d" d="m80.69,70.56h-41.74v60.54c0,18.86,10.32,20.11,21.4,22.96,8.22,2.12,14.54,5.36,20.34,11.66,5.81-6.3,12.12-9.55,20.34-11.66,11.08-2.85,21.4-4.1,21.4-22.96v-60.54h-41.74Zm-5.96-1.74c2.18-1.92,2.78-4.84,2.9-7.43h-8.94c-.17,2.98-1.65,5.7-3.96,7.43h10Zm11.92,0c-2.18-1.92-2.78-4.84-2.9-7.43h8.94c.17,2.98,1.65,5.7,3.96,7.43h-10Zm43.14-4.12l-7.31,4.12h-12.07l36.16-20.3c.88-.49,1.91-.49,2.75-.07,1.12.51,1.84,1.86,1.62,3.07-.13.88-.65,1.69-1.48,2.15l-1.88,1.06,8.26,14.75c.55.98.19,1.71-.48,2.09l-6.25,3.5-5.23-9.33,3.67-2.06-1.53-2.74-3.67,2.06-2.28-4.06-2.79,1.57,2.28,4.06-3.68,2.06,1.53,2.74,3.67-2.06,5.23,9.33-6.25,3.5c-.75.42-1.48.29-2.03-.68l-8.26-14.75h0ZM24.93,124.47c2.54,0,4.6,2.06,4.6,4.6s-2.06,4.6-4.6,4.6-4.6-2.06-4.6-4.6,2.06-4.6,4.6-4.6h0Zm-14.98-.19c2.54,0,4.6,2.06,4.6,4.6s-2.06,4.6-4.6,4.6-4.6-2.06-4.6-4.6,2.06-4.6,4.6-4.6h0Zm7.66-12.88c2.54,0,4.6,2.06,4.6,4.6s-2.06,4.6-4.6,4.6-4.6-2.06-4.6-4.6,2.06-4.6,4.6-4.6h0Zm19.61-1.2l-9.68,5.43c-.06-1.53-.47-3.06-1.26-4.49-2.68-4.79-8.74-6.5-13.53-3.81-4.22,2.36-6.05,7.34-4.59,11.77-1.05.19-2.09.56-3.08,1.11-4.79,2.68-6.5,8.74-3.81,13.53,2.68,4.79,8.74,6.5,13.53,3.81.98-.55,1.84-1.25,2.55-2.04,3.01,3.56,8.21,4.6,12.43,2.24,4.79-2.68,6.5-8.74,3.81-13.53-.8-1.43-1.9-2.58-3.18-3.43l6.8-3.81v-6.77h0Zm81.78-61.12v-5.32h2.05v-1.92h-2.05v-2.51h-2.07v2.51h-2.05v1.92h2.05v5.32h2.07Zm3.43,3.23v-17.75h-1.93v2.4h-1.58v-2.4h-1.93v2.4h-1.58v-2.4h-1.93v22.94c0,3.41-.58,6.74-2.97,9.32l5.96-3.45c4.37-2.53,5.95-5.46,5.95-11.06h0Zm-80.05-3.23v-5.32h-2.05v-1.92h2.05v-2.51h2.07v2.51h2.05v1.92h-2.05v5.32h-2.07Zm-3.43,3.23c0,5.6,1.58,8.52,5.95,11.06l5.96,3.45c-2.39-2.57-2.97-5.91-2.97-9.32v-22.94h-1.93v2.4h-1.58v-2.4h-1.93v2.4h-1.58v-2.4h-1.93v17.75h0Zm-5.73,124.14c.13-.17.38-.3.74-.41.36-.11.6-.11.71-.02.04.03.11.15.19.34.25.61.59,1.09,1.02,1.43.68.54,1.24.55,1.66.02.18-.23.23-.52.14-.85-.09-.33-.25-.68-.46-1.05-.21-.37-.41-.75-.6-1.15-.18-.4-.25-.85-.21-1.35.04-.5.26-1,.65-1.49.39-.49.86-.81,1.39-.95.97-.26,1.96,0,2.95.79.55.44.96.89,1.21,1.35.25.46.3.79.15.97-.12.16-.36.31-.68.43-.33.12-.55.14-.68.04-.03-.02-.07-.11-.14-.23-.18-.36-.47-.7-.85-1-.38-.3-.7-.44-.95-.43-.25.01-.46.12-.61.31-.15.19-.18.46-.09.78.09.33.26.67.47,1.03.21.36.41.74.6,1.14.18.4.26.86.22,1.35-.04.5-.24.98-.6,1.43-.36.45-.74.79-1.14,1-.4.21-.8.31-1.19.3-.76-.03-1.49-.32-2.19-.88-.7-.55-1.2-1.13-1.51-1.71-.3-.58-.37-.99-.2-1.21h0Zm-3.84-2.83c-.21.22-.12.52.27.91l.35.34c.39.39.71.47.92.26l6.25-6.36c.21-.21.12-.53-.27-.91l-.35-.34c-.4-.39-.71-.48-.92-.26l-6.25,6.36h0Zm-5.25-6.15l6.76-5.59c.23-.19.53-.07.88.36l.3.36c.35.43.41.74.19.93l-5.79,4.79,1.98,2.4c.17.21.08.47-.27.77l-.33.27c-.35.29-.63.34-.8.12l-2.99-3.62c-.24-.29-.21-.55.08-.78h0Zm-1.75-8.09l1.16,1.74,1.63-2.03.63-.67-.03-.05c-.41.17-.7.28-.86.32l-2.52.69h0Zm-4.71-.72c-.17.11-.1.41.22.88l.31.46c.2.3.41.43.6.37l1.72-.48,1.82,2.74-1.11,1.4c-.13.16-.06.43.19.81l.34.51c.26.39.47.52.64.41.06-.04.13-.1.19-.17l5.77-7.51c.12-.16.06-.45-.19-.83l-.4-.6c-.25-.37-.48-.55-.68-.5l-9.16,2.4c-.13.03-.21.07-.24.09h0Zm25.74,29.89c-13.61-7-26.61-21.38-31.49-34.54l13.48-7.17c4.86,10.72,12.36,20.46,23.98,26.69l-5.97,15.01h0Zm74.58,0l-5.97-15.01c11.62-6.23,19.12-15.97,23.98-26.69l13.48,7.17c-4.88,13.15-17.88,27.54-31.49,34.54h0Zm21.07-23.07c.3.22.56.17.78-.13l2.73-3.82c.16-.23.05-.48-.33-.75l-.35-.25c-.38-.27-.65-.29-.81-.07l-1.8,2.53-6.11-4.36c-.24-.17-.52-.03-.85.42l-.28.39c-.32.45-.36.77-.12.94l7.14,5.1h0Zm-3.62,4.63c.23.2.53.08.89-.34l.32-.37c.36-.42.42-.74.19-.93l-6.8-5.76c-.23-.2-.53-.08-.89.34l-.32.37c-.36.42-.42.74-.19.94l6.8,5.76h0Zm-8.42,8.25c.2.22.51.14.92-.24l.3-.28c.41-.38.51-.68.31-.89l-3.82-4.15,6.61,1.67c.29.07.61-.05.93-.35l.39-.36c.41-.37.51-.68.31-.89l-6.04-6.56c-.2-.22-.51-.14-.92.24l-.3.27c-.41.38-.51.68-.31.89l3.77,4.1-6.52-1.67c-.29-.07-.6.04-.93.35l-.44.41c-.41.38-.51.68-.31.89l6.04,6.56h0Zm-46.32,9.87c-10.3,0-22.23-2.48-31.98-7.69l5.73-15.18c8.45,4.07,18.28,6.62,26.25,6.62s17.8-2.56,26.25-6.62l5.73,15.18c-9.75,5.2-21.68,7.69-31.98,7.69h0Zm16.48-6.09c.11.35.34.48.7.37l5.13-1.61c.27-.08.33-.35.19-.79l-.13-.41c-.14-.44-.34-.62-.61-.54l-3.61,1.14-.67-2.16,3.24-1.02c.26-.08.33-.35.19-.79l-.13-.41c-.14-.44-.34-.62-.6-.54l-3.24,1.02-.6-1.93,3.6-1.13c.27-.08.33-.35.19-.79l-.13-.41c-.13-.44-.34-.62-.6-.54l-5.11,1.6c-.35.11-.48.34-.37.7l2.55,8.25h0Zm-12.35-6.74s.03.12.1.24l4.44,8.34c.1.18.38.23.82.16l.71-.12c.45-.07.69-.21.72-.42l1.5-9.33c.01-.09.01-.18,0-.25-.03-.2-.33-.26-.88-.17l-.43.07c-.45.07-.7.25-.74.53l-.99,6.77h-.06s-3.08-6.09-3.08-6.09c-.12-.25-.42-.34-.88-.26l-.45.07c-.56.09-.82.24-.79.44h0Zm-4.93,5.63l2.09-.02-.81-2.48-.22-.89h-.06c-.08.44-.15.74-.2.89l-.8,2.49h0Zm-3.18,3.55c0,.2.29.3.85.3h.56c.36,0,.58-.11.64-.3l.55-1.7,3.29-.02.57,1.69c.07.19.33.29.78.29h.61c.46,0,.7-.11.69-.31,0-.07-.01-.16-.04-.25l-3.13-8.94c-.07-.19-.34-.29-.8-.29h-.72c-.45,0-.73.11-.79.3l-3,8.98c-.04.13-.05.21-.05.25h0Zm-6.11-6.13l1.31.17c.29.04.55-.05.79-.25.24-.2.39-.47.42-.79.04-.32-.03-.6-.21-.81-.18-.21-.45-.35-.81-.39l-1.22-.15-.29,2.24h0Zm-2.79,4.94c-.04.29.23.48.77.55l.47.06c.55.07.85-.04.88-.34l.43-3.37.54.07c.41.05.7.15.87.3.16.15.34.37.42.71l.75,2.83c.05.2.31.33.76.39l.57.07c.55.07.84.01.86-.17,0-.06,0-.15-.04-.27l-.83-3.19c-.08-.31-.2-.6-.35-.87-.15-.27-.31-.45-.48-.53v-.06c.53-.12.96-.36,1.3-.7.34-.34.54-.78.61-1.29.22-1.73-.81-2.74-3.11-3.04l-2.69-.35c-.37-.05-.58.11-.62.48l-1.11,8.71h0Zm-9.63-7.4c-.47,1.65-.47,2.97.03,3.96.49.99,1.49,1.7,2.99,2.13.63.18,1.28.3,1.96.36.37.03.7.01.97-.07.27-.08.44-.24.5-.45l1.07-3.72c.1-.36-.02-.59-.38-.69l-2.72-.78c-.27-.07-.46.11-.59.56l-.12.43c-.13.45-.05.71.21.79l1.18.34-.49,1.7c-.36-.04-.72-.11-1.07-.21-1.52-.44-1.99-1.67-1.41-3.69.58-2.02,1.65-2.81,3.19-2.36.67.19,1.22.47,1.65.82.15.12.24.19.26.19.16.04.39-.06.7-.32.3-.26.48-.49.54-.69.08-.26-.18-.57-.75-.93-.57-.36-1.19-.64-1.84-.83-2.98-.86-4.93.3-5.85,3.48h0Zm65.99-65.79l9.68,5.43c.06-1.53.47-3.06,1.26-4.49,2.68-4.79,8.74-6.5,13.53-3.81,4.22,2.36,6.05,7.34,4.59,11.77,1.05.19,2.09.56,3.08,1.11,4.79,2.68,6.5,8.74,3.81,13.53-2.68,4.79-8.74,6.5-13.53,3.81-.98-.55-1.84-1.25-2.55-2.04-3.01,3.56-8.22,4.6-12.43,2.24-4.79-2.68-6.5-8.74-3.81-13.53.8-1.43,1.9-2.58,3.18-3.43l-6.8-3.81v-6.77h0ZM31.49,64.7l-8.26,14.75c-.55.98-1.28,1.1-2.03.68l-6.25-3.5,5.23-9.33,3.67,2.06,1.53-2.74-3.67-2.06,2.28-4.06-2.79-1.57-2.28,4.06-3.67-2.06-1.53,2.74,3.67,2.06-5.23,9.33-6.25-3.5c-.67-.38-1.03-1.11-.48-2.09l8.26-14.75-1.88-1.06c-.83-.47-1.35-1.28-1.48-2.15-.23-1.21.5-2.56,1.62-3.07.84-.41,1.87-.42,2.75.07l36.16,20.3h-12.07l-7.31-4.12h0Zm49.2-9.7c-2.11,0-3.89-1.05-4.91-2.83-1.01,1.78-2.79,2.83-4.86,2.83s-3.85-1.05-4.86-2.83c-.52.91-1.27,1.67-2.19,2.17l1,2.29c.88,2.03,2.03,3.08,3.8,3.08h24.05c1.77,0,2.92-1.05,3.8-3.08l1-2.29c-.92-.5-1.67-1.26-2.19-2.17-1.01,1.78-2.79,2.83-4.86,2.83s-3.85-1.05-4.86-2.83c-1.01,1.78-2.79,2.83-4.91,2.83h0Zm0-15.88c1.08,1.92,3,3.01,5.21,3.01s4.13-1.09,5.21-3.01c1.07,1.92,3.09,3.01,5.21,3.01s3.82-.91,4.94-2.59c-.12,5.05-1.59,9.46-3.12,13.29-1.19-.72-2-1.46-2-3.39h2.29v-1.78h-2.21v-2.25h-1.78v2.25h-2.19v1.78h2.27c0,1.93-1.78,3.93-4.05,3.93s-4.05-1.93-4.05-3.93h2.29v-1.78h-2.21v-2.25h-1.78v2.25h-2.2v1.78h2.28c0,1.98-1.77,3.93-4.1,3.93s-4.1-1.95-4.1-3.93h2.28v-1.78h-2.2v-2.25h-1.78v2.25h-2.21v1.78h2.29c0,2-1.77,3.93-4.05,3.93s-4.05-2.01-4.05-3.93h2.27v-1.78h-2.19v-2.25h-1.78v2.25h-2.21v1.78h2.29c0,1.93-.81,2.67-2,3.39-1.53-3.83-3-8.24-3.12-13.29,1.13,1.67,2.83,2.59,4.95,2.59s4.13-1.09,5.21-3.01c1.08,1.92,3,3.01,5.21,3.01s4.13-1.09,5.21-3.01h0Zm0-9.66c-2.12,0-3.89-1.05-4.91-2.83-1.02,1.78-2.42,2.83-4.86,2.83s-5.13-1.53-5.62-4.51c-2.13,2.62-3.57,4.84-4.44,8.06-.14.51-.26,1.04-.36,1.56h2.45v1.78h-2.29c0,1.93,2.03,4.17,4.4,4.17s4.4-2.25,4.4-4.17h-2.29v-1.78h2.2v-2.26h1.78v2.26h2.2v1.78h-2.29c0,1.93,1.99,4.17,4.4,4.17s4.4-2.23,4.4-4.17h-2.29v-1.78h2.2v-2.26h1.78v2.26h2.2v1.78h-2.29c0,1.93,1.99,4.17,4.4,4.17s4.4-2.23,4.4-4.17h-2.29v-1.78h2.2v-2.26h1.78v2.26h2.2v1.78h-2.29c0,1.92,2.03,4.17,4.41,4.17s4.4-2.24,4.4-4.17h-2.29v-1.78h2.45c-.1-.52-.22-1.05-.35-1.56-.87-3.21-2.31-5.44-4.44-8.06-.49,2.98-3.18,4.51-5.62,4.51s-3.85-1.05-4.86-2.83c-1.01,1.78-2.79,2.83-4.91,2.83h0Zm2.67-13.97c3.65,1.77,7.42,4.29,10.07,6.64h-1.2v1.78h2.29c0,2.02-1.77,3.93-4.05,3.93s-4.05-1.92-4.05-3.93h2.29v-1.78h-2.21v-2.26h-1.78v2.26h-2.2v1.78h2.28c0,2-1.77,3.93-4.1,3.93s-4.1-1.93-4.1-3.93h2.28v-1.78h-2.2v-2.26h-1.78v2.26h-2.21v1.78h2.29c0,2.02-1.77,3.93-4.05,3.93s-4.05-1.92-4.05-3.93h2.29v-1.78h-1.2c2.65-2.35,6.42-4.87,10.07-6.64-.29-.48-.46-1.04-.46-1.64,0-1.17.64-2.19,1.6-2.73v-4.05h-3.81v-2.98h3.81V0h3.07v4.09h3.81v2.98h-3.81v4.05c.95.54,1.6,1.56,1.6,2.73,0,.6-.17,1.16-.46,1.64h0Zm53.1,108.98c-2.54,0-4.6,2.06-4.6,4.6s2.06,4.6,4.6,4.6,4.6-2.06,4.6-4.6-2.06-4.6-4.6-4.6h0Zm14.98-.19c-2.54,0-4.6,2.06-4.6,4.6s2.06,4.6,4.6,4.6,4.6-2.06,4.6-4.6-2.06-4.6-4.6-4.6h0Zm-7.66-12.88c-2.54,0-4.6,2.06-4.6,4.6s2.06,4.6,4.6,4.6,4.6-2.06,4.6-4.6-2.06-4.6-4.6-4.6h0Zm-63.09,29.62c-2.14,0-4.08,1.64-6.26,3.71-2.45,2.33-5.65,4.95-9.48,3.92l4.91-5.35c-1.93-.63-3.98.27-6.37,1.36-2.46.97-5.14,2.04-8.14.32l7.13-3.96c-2.97-2.52-10.75,2.36-13.93-2.32l10.53-2.17c-2.24-3.35-10.7-.41-12.79-5.72h12.1c-1.66-3.8-11.14-1.93-12.7-7.88l12.7,1.79c-1.64-4.35-10.71-3.82-12.7-10.51l12.7,3.93c-1.08-4.79-11.3-5.53-12.7-13.42l12.7,6.13c-1-6.1-11.57-7.33-12.7-15.86l13.01,7.42c-.15-5.96-12.32-8.98-13.01-17.97l13.19,9.02c-.36-7.45-12.28-10.38-13.19-19.57l13.43,8.17c6.2,3.77,9.26,7.55,12.25,15.41,2.26,5.94,4.8,11.08,9.32,11.08s7.06-5.14,9.32-11.08c3-7.86,6.05-11.64,12.25-15.41l13.43-8.17c-.91,9.19-12.83,12.12-13.19,19.57l13.19-9.02c-.69,8.99-12.86,12.01-13.01,17.97l13.01-7.42c-1.12,8.53-11.7,9.76-12.7,15.86l12.7-6.13c-1.4,7.89-11.61,8.63-12.7,13.42l12.7-3.93c-1.98,6.69-11.05,6.16-12.7,10.51l12.7-1.79c-1.56,5.95-11.04,4.08-12.7,7.88h12.1c-2.09,5.31-10.55,2.37-12.79,5.72l10.53,2.17c-3.18,4.68-10.96-.21-13.93,2.32l7.13,3.96c-3,1.72-5.68.65-8.14-.32-2.39-1.09-4.44-1.99-6.37-1.36l4.91,5.35c-3.83,1.03-7.03-1.59-9.48-3.92-2.18-2.07-4.12-3.71-6.26-3.71h0Zm.87-27.91h17.74v23.47h-17.74v-23.47h0Zm-19.47,0h17.75v23.47h-17.75v-23.47h0Zm8.14,4.87h1.36c.59,0,.92.06,1.1.56l4.37,11.67c.06.17.08.28.08.33,0,.27-.4.41-1.2.41h-.51c-.51,0-.81-.14-.9-.39l-.78-2.27h-5.58l-.79,2.27c-.09.26-.39.39-.9.39h-.5c-.8,0-1.2-.14-1.2-.41,0-.05.02-.16.08-.33l4.38-11.67c.18-.49.42-.56,1-.56h0Zm.73,2.73h.08l1.92,5.31h-4l1.93-5.31h.08Zm19.47-3.2c3.87,0,5.92,3.3,5.92,6.01,0,1.9-.7,3.59-2.44,5l2.18-.06c.37-.01.67.23.67.79v.74c0,.62-.22.85-.59.85h-4.44c-.37,0-.56-.17-.56-.75v-.79c0-.35.18-.57.32-.7,1.41-1.22,2.23-2.7,2.25-4.55.02-1.99-1.04-3.98-3.31-3.98s-3.34,1.99-3.31,3.98c.02,1.84.84,3.33,2.25,4.55.15.13.32.35.32.7v.79c0,.57-.19.75-.56.75h-4.44c-.37,0-.59-.23-.59-.85v-.74c0-.56.3-.8.67-.79l2.18.06c-1.74-1.41-2.44-3.1-2.44-5,0-2.71,2.05-6.01,5.92-6.01Z"/>
    </g>
  </g>
</svg>