<svg xmlns:xlink="http://www.w3.org/1999/xlink" viewBox="0 0 21000 10869" style="shape-rendering:geometricPrecision; text-rendering:geometricPrecision; image-rendering:optimizeQuality; fill-rule:evenodd; clip-rule:evenodd" version="1.1" height="108.69mm" width="210mm" xml:space="preserve" xmlns="http://www.w3.org/2000/svg">
 <defs>
  <style type="text/css">
   
    .fil0 {fill:lime;fill-rule:nonzero}
   
  </style>
 </defs>
 <g id="Camada_x0020_1">
  <metadata id="CorelCorpID_0Corel-Layer"></metadata>
  <g id="safari-pinned-tab.svg">
   <g>
    <path d="M20645.41 30.24c-284.73,67 -401.97,117.24 -2060.1,917.84 -941.29,452.22 -1956.27,927.88 -2763.57,1289.65 -194.28,87.1 -412.02,184.24 -485.72,217.74 -73.69,33.5 -569.45,234.48 -1105.42,445.52 -817.35,321.58 -1671.54,673.3 -2150.55,880.99 -60.3,26.8 -160.79,67 -217.74,93.8 -267.98,113.89 -1427,633.11 -1514.1,676.65 -144.04,70.34 -170.84,60.3 -180.89,-63.65 -40.19,-505.81 -385.22,-813.99 -924.54,-824.04l-133.99 -3.35 117.24 -83.74c351.73,-261.28 887.69,-713.5 1128.87,-954.69 532.62,-532.61 693.4,-1025.03 422.07,-1299.71 -150.74,-147.39 -576.16,-221.08 -917.83,-160.79 -214.39,40.2 -602.96,154.1 -753.7,221.09 -1004.93,445.51 -1711.73,847.49 -2569.28,1463.85 -164.14,113.89 -294.78,204.33 -294.78,197.63 0,-100.49 247.89,-623.06 368.48,-773.8 197.64,-247.88 247.89,-485.71 103.84,-485.71 -33.49,0 -154.09,46.89 -274.68,107.19 -207.68,103.84 -445.51,314.88 -656.55,586.21 -97.15,120.59 -435.47,375.17 -680,509.16 -814,438.82 -1761.98,773.8 -2200.8,773.8 -763.75,0 -783.85,-760.4 -40.2,-1530.84 304.83,-314.88 552.71,-505.81 1128.87,-867.59 609.67,-385.22 1169.07,-643.15 1654.79,-763.74 294.77,-73.69 462.26,-90.44 937.94,-100.49 529.26,-10.05 582.85,-70.34 133.99,-157.44 -207.69,-36.86 -941.29,-26.8 -1145.62,16.75 -46.9,10.04 -120.6,26.79 -167.49,36.85 -46.9,13.4 -120.6,26.79 -167.49,36.85 -207.69,43.54 -720.2,237.83 -1065.23,405.32 -1343.26,659.9 -2452.03,1731.83 -2669.77,2575.97 -157.44,613.01 204.34,1004.93 884.34,964.74 264.63,-16.75 271.33,-20.1 703.45,-127.3 696.75,-177.53 1514.1,-515.87 2143.85,-887.69 97.15,-60.29 184.24,-100.49 190.94,-93.79 6.7,3.35 -30.15,120.59 -80.4,257.93 -103.84,281.38 -93.8,274.68 -860.89,927.88 -2033.31,1731.83 -3396.67,3316.28 -4136.96,4800.22 -448.87,901.09 -468.97,1313.11 -63.65,1313.11 502.47,0 1427,-696.75 2261.09,-1698.33 994.89,-1202.57 2488.88,-3420.11 3188.98,-4739.92 187.59,-355.07 257.93,-422.07 1061.88,-984.84 1088.68,-763.74 2083.56,-1286.31 2622.87,-1376.76 221.09,-36.85 458.93,10.05 559.42,107.2 217.74,217.74 23.44,562.76 -592.92,1058.53 -87.09,70.34 -177.53,147.39 -200.99,167.49 -150.74,147.39 -1048.47,783.84 -1199.21,850.84 -820.7,365.13 -1370.05,736.95 -1427,971.44 -30.15,120.59 63.65,187.59 221.08,160.79 160.79,-30.15 659.91,-274.69 1021.68,-505.81 351.73,-224.44 522.56,-281.38 820.7,-288.08 345.02,-6.71 562.76,137.34 663.25,438.82 23.45,63.64 40.2,157.44 40.2,207.68 0,87.09 -43.55,113.89 -877.64,532.62 -485.72,244.53 -894.4,452.22 -914.49,468.97 -16.75,13.39 -184.24,103.84 -368.48,200.99 -1370.05,723.55 -3212.43,1872.52 -4254.21,2653.01 -1678.24,1259.51 -2113.71,2073.51 -1112.12,2076.86 760.4,0 1705.03,-318.23 3205.73,-1085.33 358.42,-180.88 676.65,-345.02 703.45,-361.77 26.79,-16.75 207.68,-123.94 401.97,-237.83 1611.23,-954.69 2783.65,-1973.02 3477.05,-3011.45 180.89,-278.03 405.33,-713.5 472.33,-921.18l43.54 -137.34 767.1 -345.03c733.59,-328.28 2224.24,-964.73 2475.48,-1058.53 63.65,-23.44 291.43,-113.89 502.47,-197.64 211.03,-87.09 539.31,-217.74 723.55,-288.08 395.27,-150.74 1316.46,-556.06 2190.75,-961.38 137.34,-67 341.68,-160.79 452.22,-211.04 351.73,-160.78 820.7,-385.22 1406.91,-669.95 314.88,-150.74 743.65,-358.43 954.69,-458.93 211.03,-103.84 415.36,-200.99 452.22,-217.74 110.54,-53.59 -509.17,539.31 -921.19,881 -596.26,495.76 -1400.21,1071.92 -1875.88,1346.61 -921.19,532.61 -1698.33,914.48 -2123.75,1041.78 -656.55,200.99 -1839.03,609.66 -2287.89,790.55 -706.8,284.73 -1041.78,505.81 -1159.02,763.74 -50.25,110.55 33.5,170.84 204.33,150.74 348.38,-40.19 1664.84,-505.81 2535.78,-897.73 592.91,-264.63 817.34,-361.78 887.69,-385.22 46.89,-16.75 355.07,-110.55 686.69,-211.04 331.63,-103.84 673.31,-207.68 763.75,-234.48 87.09,-26.79 157.44,-43.54 157.44,-33.5 0,36.86 -227.78,298.13 -422.07,485.72 -857.54,827.39 -2006.51,1406.91 -3326.32,1671.54 -355.07,70.34 -703.45,144.03 -770.45,164.13 -67,16.75 -157.44,36.86 -204.33,46.9 -351.73,60.3 -1051.82,278.04 -1323.16,405.32 -368.47,177.54 -596.25,438.82 -489.07,566.11 36.86,43.55 284.73,46.9 472.32,3.35 46.9,-10.04 123.95,-23.44 174.19,-33.5 361.77,-67 1182.47,-294.77 2053.41,-569.46 408.67,-127.29 1155.67,-294.77 1155.67,-257.93 0,30.15 -174.19,160.79 -602.96,445.52 -519.22,351.72 -1383.45,783.84 -2043.36,1028.38 -395.27,147.39 -1165.72,391.92 -1339.9,425.42 -33.5,6.7 -150.74,36.85 -257.94,63.65 -200.99,53.59 -599.6,147.39 -746.99,174.18 -46.9,10.05 -234.48,43.55 -418.72,80.4 -184.24,33.5 -425.42,73.69 -535.96,83.74 -110.55,13.4 -207.68,30.15 -217.74,33.5 -10.05,6.7 -113.89,20.1 -234.48,33.5 -120.59,13.4 -241.18,26.8 -267.98,33.5 -26.8,6.7 -147.39,20.1 -267.98,33.5 -120.59,13.4 -237.83,40.19 -257.93,56.94 -107.2,87.1 -30.15,100.49 435.47,80.4 596.25,-23.44 733.59,-36.85 1564.34,-137.34 63.65,-10.05 194.28,-23.44 284.73,-33.5 93.79,-13.4 221.08,-33.5 284.73,-50.25 63.64,-16.75 194.28,-40.19 284.73,-53.59 93.79,-10.05 177.53,-26.8 187.59,-33.5 13.4,-6.71 80.4,-20.1 150.74,-33.5 385.22,-60.3 1534.19,-415.37 1946.22,-602.96 1741.87,-790.55 3132.03,-1775.38 3081.78,-2190.75 -3.35,-53.6 36.85,-93.8 177.54,-170.85 720.19,-398.62 1611.23,-1125.52 2053.41,-1671.53 395.27,-492.41 438.82,-777.14 113.89,-753.7 -117.24,6.7 -127.3,20.1 378.52,-318.23 542.66,-361.77 542.66,-361.77 1071.93,-770.45 468.97,-361.77 572.81,-448.86 934.58,-787.19 710.16,-663.26 1085.33,-1142.27 1011.64,-1286.32 -46.9,-87.09 -127.3,-100.49 -338.34,-50.25l0.02 -0.01zm-5945.83 4371.45c-304.84,154.09 -1390.16,616.36 -1678.24,716.85 -267.98,90.44 -345.03,93.79 -204.33,3.35 90.44,-60.3 830.74,-371.82 1145.62,-482.37 110.54,-40.19 351.73,-130.63 535.96,-200.99 405.32,-160.78 472.32,-170.84 200.99,-36.85l0 0.01zm-10086.17 539.31c-221.08,428.78 -1289.65,2063.46 -1895.96,2897.56 -680.01,941.29 -1390.16,1751.93 -1758.63,2013.21 -127.3,90.44 -150.74,63.64 -107.19,-113.89 16.75,-70.34 40.19,-160.79 46.89,-197.64 23.45,-103.84 405.32,-864.24 539.31,-1078.62 542.67,-867.59 1195.88,-1668.19 2090.26,-2555.87 479.01,-475.67 1102.07,-1065.23 1132.22,-1071.93 3.35,0 -16.75,50.25 -46.9,107.19l0 -0.01zm4512.15 884.34c-217.74,462.26 -666.61,1061.88 -1095.37,1463.85 -348.38,324.92 -422.07,385.22 -800.6,669.96 -968.09,733.6 -2321.39,1497.35 -3440.22,1946.22 -880.99,355.07 -1668.18,462.26 -1668.18,231.13 0,-267.98 1309.76,-1316.46 2797.06,-2240.99 666.6,-412.02 1611.23,-964.73 2177.35,-1269.56 130.64,-70.35 341.67,-184.24 472.32,-254.59 613.01,-331.62 1638.04,-827.39 1648.09,-797.24 6.71,16.75 -33.5,130.64 -90.44,251.23l-0.01 -0.01zm2860.7 813.99c-36.85,30.15 -592.91,207.69 -639.81,200.99 -23.44,-3.35 599.61,-221.08 656.55,-227.78 6.71,-3.35 0,10.04 -16.75,26.79l0.01 0z" class="fil0"></path>
    <path d="M11031.57 3460.4c-291.43,80.4 -579.51,385.22 -515.86,552.71 20.1,50.25 234.48,107.19 271.33,70.34 13.4,-10.04 -16.75,-20.1 -63.65,-20.1 -46.9,0 -93.8,-20.1 -103.84,-46.9 -20.1,-46.89 16.75,-67 278.03,-157.44 67,-20.1 150.74,-63.65 187.59,-93.8 93.8,-77.04 190.94,-227.78 167.49,-264.62 -30.14,-46.9 -127.29,-63.65 -221.08,-40.2l-0.01 0.01z" class="fil0"></path>
   </g>
  </g>
 </g>
</svg>
